<svg width="54" height="15" viewBox="0 0 54 15" fill="none" xmlns="http://www.w3.org/2000/svg">
<rect y="0.938431" width="54" height="14" fill="#E0CD1C"/>
<path d="M18.936 5.33843L17.08 10.9384H18.76L19.12 9.71443H21.12L21.48 10.9384H23.16L21.304 5.33843H18.936ZM20.032 6.45843H20.208L20.784 8.54643H19.456L20.032 6.45843ZM23.7222 5.33843V10.9384H25.3062V8.58643H26.0342L27.1782 10.9384H29.0022L27.3222 7.97043L28.9862 5.33843H27.2662L26.0342 7.43443H25.3062V5.33843H23.7222ZM29.5659 5.33843V10.9384H35.0059L35.4859 9.67443H34.6859V5.33843H33.1019V9.67443H31.1499V5.33843H29.5659ZM35.9644 5.33843V10.9384H37.5484V9.33843L39.5004 8.14643V10.9384H41.0844V5.33843H39.5004V6.77843L37.5484 7.97043V5.33843H35.9644ZM46.8905 5.33843H44.5625C43.9865 5.33843 43.4105 5.33843 42.9305 5.57843C42.6585 5.71443 42.0505 6.12243 42.0585 7.04243C42.0665 7.54643 42.2665 7.90643 42.5545 8.16243C42.7785 8.35443 42.9865 8.42643 43.1305 8.45843C42.9385 8.50643 42.7385 8.61843 42.5865 8.93843L41.6425 10.9384H43.4345L43.9625 9.45043C44.0105 9.30643 44.1305 9.11443 44.2105 9.02643C44.3625 8.86643 44.5305 8.84243 44.6985 8.84243H45.3065V10.9384H46.8905V5.33843ZM45.3065 6.42643V7.81843H44.4745C44.2905 7.81843 44.0505 7.80243 43.8665 7.65043C43.6985 7.50643 43.6585 7.31443 43.6585 7.11443C43.6585 6.94643 43.6825 6.74643 43.8505 6.60243C44.0345 6.44243 44.3145 6.42643 44.4905 6.42643H45.3065Z" fill="white"/>
<path fill-rule="evenodd" clip-rule="evenodd" d="M9.5 11.6468C7.72808 11.6468 6.29166 10.2103 6.29166 8.43843C6.29166 6.66651 7.72808 5.23009 9.5 5.23009C11.2719 5.23009 12.7083 6.66651 12.7083 8.43843C12.7083 10.2103 11.2719 11.6468 9.5 11.6468ZM9.5 11.0634C10.9497 11.0634 12.125 9.88818 12.125 8.43843C12.125 6.98868 10.9497 5.81343 9.5 5.81343C8.05025 5.81343 6.875 6.98868 6.875 8.43843C6.875 9.88818 8.05025 11.0634 9.5 11.0634ZM9.79166 9.31343C9.79166 9.79668 10.1834 10.1884 10.6667 10.1884C11.1499 10.1884 11.5417 9.79668 11.5417 9.31343C11.5417 8.83018 11.1499 8.43843 10.6667 8.43843C10.1834 8.43843 9.79166 8.83018 9.79166 9.31343ZM10.6667 9.60509C10.8277 9.60509 10.9583 9.47451 10.9583 9.31343C10.9583 9.15234 10.8277 9.02176 10.6667 9.02176C10.5056 9.02176 10.375 9.15234 10.375 9.31343C10.375 9.47451 10.5056 9.60509 10.6667 9.60509ZM7.45833 7.56343C7.45833 8.04668 7.85008 8.43843 8.33333 8.43843C8.81658 8.43843 9.20833 8.04668 9.20833 7.56343C9.20833 7.08018 8.81658 6.68843 8.33333 6.68843C7.85008 6.68843 7.45833 7.08018 7.45833 7.56343ZM8.33333 7.85509C8.49441 7.85509 8.625 7.72451 8.625 7.56343C8.625 7.40235 8.49441 7.27176 8.33333 7.27176C8.17225 7.27176 8.04166 7.40235 8.04166 7.56343C8.04166 7.72451 8.17225 7.85509 8.33333 7.85509ZM8.9511 10.1884L10.7011 6.68843H10.0489L8.29891 10.1884H8.9511Z" fill="white"/>
<path d="M10.7011 6.68843L10.8129 6.74433L10.9034 6.56343H10.7011V6.68843ZM8.9511 10.1884V10.3134H9.02835L9.0629 10.2443L8.9511 10.1884ZM10.0489 6.68843V6.56343H9.97166L9.93711 6.63253L10.0489 6.68843ZM8.29891 10.1884L8.18711 10.1325L8.09666 10.3134H8.29891V10.1884ZM6.16666 8.43843C6.16666 10.2794 7.65905 11.7718 9.5 11.7718V11.5218C7.79712 11.5218 6.41666 10.1413 6.41666 8.43843H6.16666ZM9.5 5.10509C7.65905 5.10509 6.16666 6.59748 6.16666 8.43843H6.41666C6.41666 6.73555 7.79712 5.35509 9.5 5.35509V5.10509ZM12.8333 8.43843C12.8333 6.59748 11.3409 5.10509 9.5 5.10509V5.35509C11.2029 5.35509 12.5833 6.73555 12.5833 8.43843H12.8333ZM9.5 11.7718C11.3409 11.7718 12.8333 10.2794 12.8333 8.43843H12.5833C12.5833 10.1413 11.2029 11.5218 9.5 11.5218V11.7718ZM12 8.43843C12 9.81914 10.8807 10.9384 9.5 10.9384V11.1884C11.0188 11.1884 12.25 9.95721 12.25 8.43843H12ZM9.5 5.93843C10.8807 5.93843 12 7.05772 12 8.43843H12.25C12.25 6.91965 11.0188 5.68843 9.5 5.68843V5.93843ZM7 8.43843C7 7.05772 8.11929 5.93843 9.5 5.93843V5.68843C7.98121 5.68843 6.75 6.91964 6.75 8.43843H7ZM9.5 10.9384C8.11929 10.9384 7 9.81914 7 8.43843H6.75C6.75 9.95721 7.98121 11.1884 9.5 11.1884V10.9384ZM10.6667 10.0634C10.2525 10.0634 9.91666 9.72764 9.91666 9.31343H9.66666C9.66666 9.86571 10.1144 10.3134 10.6667 10.3134V10.0634ZM11.4167 9.31343C11.4167 9.72764 11.0809 10.0634 10.6667 10.0634V10.3134C11.2189 10.3134 11.6667 9.86571 11.6667 9.31343H11.4167ZM10.6667 8.56343C11.0809 8.56343 11.4167 8.89921 11.4167 9.31343H11.6667C11.6667 8.76114 11.2189 8.31343 10.6667 8.31343V8.56343ZM9.91666 9.31343C9.91666 8.89921 10.2525 8.56343 10.6667 8.56343V8.31343C10.1144 8.31343 9.66666 8.76114 9.66666 9.31343H9.91666ZM10.8333 9.31343C10.8333 9.40548 10.7587 9.48009 10.6667 9.48009V9.73009C10.8968 9.73009 11.0833 9.54355 11.0833 9.31343H10.8333ZM10.6667 9.14676C10.7587 9.14676 10.8333 9.22138 10.8333 9.31343H11.0833C11.0833 9.08331 10.8968 8.89676 10.6667 8.89676V9.14676ZM10.5 9.31343C10.5 9.22138 10.5746 9.14676 10.6667 9.14676V8.89676C10.4365 8.89676 10.25 9.08331 10.25 9.31343H10.5ZM10.6667 9.48009C10.5746 9.48009 10.5 9.40548 10.5 9.31343H10.25C10.25 9.54355 10.4365 9.73009 10.6667 9.73009V9.48009ZM8.33333 8.31343C7.91912 8.31343 7.58333 7.97764 7.58333 7.56343H7.33333C7.33333 8.11571 7.78105 8.56343 8.33333 8.56343V8.31343ZM9.08333 7.56343C9.08333 7.97764 8.74754 8.31343 8.33333 8.31343V8.56343C8.88562 8.56343 9.33333 8.11571 9.33333 7.56343H9.08333ZM8.33333 6.81343C8.74754 6.81343 9.08333 7.14921 9.08333 7.56343H9.33333C9.33333 7.01114 8.88562 6.56343 8.33333 6.56343V6.81343ZM7.58333 7.56343C7.58333 7.14921 7.91912 6.81343 8.33333 6.81343V6.56343C7.78105 6.56343 7.33333 7.01114 7.33333 7.56343H7.58333ZM8.5 7.56343C8.5 7.65548 8.42538 7.73009 8.33333 7.73009V7.98009C8.56345 7.98009 8.75 7.79355 8.75 7.56343H8.5ZM8.33333 7.39676C8.42538 7.39676 8.5 7.47138 8.5 7.56343H8.75C8.75 7.33331 8.56345 7.14676 8.33333 7.14676V7.39676ZM8.16666 7.56343C8.16666 7.47138 8.24128 7.39676 8.33333 7.39676V7.14676C8.10321 7.14676 7.91666 7.33331 7.91666 7.56343H8.16666ZM8.33333 7.73009C8.24128 7.73009 8.16666 7.65548 8.16666 7.56343H7.91666C7.91666 7.79355 8.10321 7.98009 8.33333 7.98009V7.73009ZM10.5893 6.63253L8.8393 10.1325L9.0629 10.2443L10.8129 6.74433L10.5893 6.63253ZM10.0489 6.81343H10.7011V6.56343H10.0489V6.81343ZM8.41072 10.2443L10.1607 6.74433L9.93711 6.63253L8.18711 10.1325L8.41072 10.2443ZM8.9511 10.0634H8.29891V10.3134H8.9511V10.0634Z" fill="white"/>
</svg>
