<svg width="81" height="15" viewBox="0 0 81 15" fill="none" xmlns="http://www.w3.org/2000/svg">
<rect y="0.938431" width="81" height="14" fill="#A32018"/>
<mask id="path-2-outside-1_2103_1995" maskUnits="userSpaceOnUse" x="6.08511" y="4.12354" width="8" height="8" fill="black">
<rect fill="white" x="6.08511" y="4.12354" width="8" height="8"/>
<path fill-rule="evenodd" clip-rule="evenodd" d="M8.54255 8.66198L8.1985 10.668L9.99999 9.72087L11.8015 10.668L11.4574 8.66198L12.9149 7.24133L10.9007 6.94866L9.99999 5.12354L9.09925 6.94866L7.08511 7.24133L8.54255 8.66198ZM10.9202 8.48742L11.1374 9.75397L9.99999 9.15599L8.86256 9.75397L9.07979 8.48742L8.15959 7.59045L9.43128 7.40566L9.99999 6.25332L10.5687 7.40566L11.8404 7.59045L10.9202 8.48742Z"/>
</mask>
<path fill-rule="evenodd" clip-rule="evenodd" d="M8.54255 8.66198L8.1985 10.668L9.99999 9.72087L11.8015 10.668L11.4574 8.66198L12.9149 7.24133L10.9007 6.94866L9.99999 5.12354L9.09925 6.94866L7.08511 7.24133L8.54255 8.66198ZM10.9202 8.48742L11.1374 9.75397L9.99999 9.15599L8.86256 9.75397L9.07979 8.48742L8.15959 7.59045L9.43128 7.40566L9.99999 6.25332L10.5687 7.40566L11.8404 7.59045L10.9202 8.48742Z" fill="white"/>
<path d="M8.1985 10.668L7.90282 10.6173L7.80006 11.2164L8.3381 10.9335L8.1985 10.668ZM8.54255 8.66198L8.83824 8.7127L8.8649 8.55725L8.75196 8.44716L8.54255 8.66198ZM9.99999 9.72087L10.1396 9.45534L9.99999 9.38194L9.86039 9.45534L9.99999 9.72087ZM11.8015 10.668L11.6619 10.9335L12.1999 11.2164L12.0972 10.6173L11.8015 10.668ZM11.4574 8.66198L11.248 8.44716L11.1351 8.55725L11.1618 8.7127L11.4574 8.66198ZM12.9149 7.24133L13.1243 7.45615L13.5596 7.03186L12.958 6.94445L12.9149 7.24133ZM10.9007 6.94866L10.6317 7.08143L10.7015 7.22286L10.8576 7.24554L10.9007 6.94866ZM9.99999 5.12354L10.269 4.99077L9.99999 4.44568L9.73097 4.99077L9.99999 5.12354ZM9.09925 6.94866L9.14239 7.24554L9.29847 7.22286L9.36827 7.08143L9.09925 6.94866ZM7.08511 7.24133L7.04197 6.94445L6.44043 7.03186L6.87571 7.45615L7.08511 7.24133ZM11.1374 9.75397L10.9978 10.0195L11.5359 10.3024L11.4331 9.70326L11.1374 9.75397ZM10.9202 8.48742L10.7108 8.2726L10.5978 8.38269L10.6245 8.53814L10.9202 8.48742ZM9.99999 9.15599L10.1396 8.89045L9.99999 8.81705L9.86039 8.89045L9.99999 9.15599ZM8.86256 9.75397L8.56688 9.70326L8.46412 10.3024L9.00216 10.0195L8.86256 9.75397ZM9.07979 8.48742L9.37547 8.53814L9.40213 8.38269L9.28919 8.2726L9.07979 8.48742ZM8.15959 7.59045L8.11645 7.29357L7.5149 7.38098L7.95019 7.80527L8.15959 7.59045ZM9.43128 7.40566L9.47441 7.70254L9.6305 7.67986L9.7003 7.53843L9.43128 7.40566ZM9.99999 6.25332L10.269 6.12055L9.99999 5.57545L9.73097 6.12055L9.99999 6.25332ZM10.5687 7.40566L10.2997 7.53843L10.3695 7.67986L10.5256 7.70254L10.5687 7.40566ZM11.8404 7.59045L12.0498 7.80527L12.4851 7.38098L11.8835 7.29357L11.8404 7.59045ZM8.49418 10.7187L8.83824 8.7127L8.24687 8.61127L7.90282 10.6173L8.49418 10.7187ZM9.86039 9.45534L8.0589 10.4024L8.3381 10.9335L10.1396 9.98641L9.86039 9.45534ZM11.9411 10.4024L10.1396 9.45534L9.86039 9.98641L11.6619 10.9335L11.9411 10.4024ZM11.1618 8.7127L11.5058 10.7187L12.0972 10.6173L11.7531 8.61127L11.1618 8.7127ZM12.7055 7.0265L11.248 8.44716L11.6668 8.87681L13.1243 7.45615L12.7055 7.0265ZM10.8576 7.24554L12.8717 7.53821L12.958 6.94445L10.9439 6.65178L10.8576 7.24554ZM9.73097 5.25631L10.6317 7.08143L11.1698 6.81589L10.269 4.99077L9.73097 5.25631ZM9.36827 7.08143L10.269 5.25631L9.73097 4.99077L8.83023 6.81589L9.36827 7.08143ZM7.12825 7.53821L9.14239 7.24554L9.05611 6.65178L7.04197 6.94445L7.12825 7.53821ZM8.75196 8.44716L7.29452 7.0265L6.87571 7.45615L8.33315 8.87681L8.75196 8.44716ZM11.4331 9.70326L11.2159 8.43671L10.6245 8.53814L10.8417 9.80468L11.4331 9.70326ZM9.86039 9.42153L10.9978 10.0195L11.277 9.48843L10.1396 8.89045L9.86039 9.42153ZM9.00216 10.0195L10.1396 9.42153L9.86039 8.89045L8.72296 9.48843L9.00216 10.0195ZM8.78411 8.43671L8.56688 9.70326L9.15824 9.80468L9.37547 8.53814L8.78411 8.43671ZM7.95019 7.80527L8.87039 8.70225L9.28919 8.2726L8.36899 7.37562L7.95019 7.80527ZM9.38814 7.10878L8.11645 7.29357L8.20273 7.88733L9.47441 7.70254L9.38814 7.10878ZM9.73097 6.12055L9.16225 7.27289L9.7003 7.53843L10.269 6.38609L9.73097 6.12055ZM10.8377 7.27289L10.269 6.12055L9.73097 6.38609L10.2997 7.53843L10.8377 7.27289ZM11.8835 7.29357L10.6118 7.10878L10.5256 7.70254L11.7973 7.88733L11.8835 7.29357ZM11.1296 8.70225L12.0498 7.80527L11.631 7.37562L10.7108 8.2726L11.1296 8.70225Z" fill="white" mask="url(#path-2-outside-1_2103_1995)"/>
<path d="M17.16 5.33843L18.632 7.97843L17.08 10.9384H18.872L19.944 8.58643H20.088L21.16 10.9384H22.952L21.4 7.97843L22.872 5.33843H21.16L20.088 7.48243H19.944L18.872 5.33843H17.16ZM23.5113 5.33843V10.9384H25.0953V9.33843L27.0473 8.14643V10.9384H28.6313V5.33843H27.0473V6.77843L25.0953 7.97043V5.33843H23.5113ZM29.1894 5.33843V6.49843H30.7094V10.9384H32.2934V6.49843H33.8294V5.33843H29.1894ZM36.2534 5.33843V10.9384H37.8374V6.60243H39.7894V10.9384H41.3734V5.33843H36.2534ZM42.3316 5.33843V10.9384H43.9156V9.21043H44.4676C45.0916 9.21043 45.7796 9.17043 46.3076 8.81843C46.9316 8.40243 47.0516 7.80243 47.0516 7.27443C47.0516 6.74643 46.9316 6.14643 46.3076 5.73043C45.7796 5.37843 45.0916 5.33843 44.4676 5.33843H42.3316ZM43.9156 6.45843H44.5156C44.6996 6.45843 45.0116 6.47443 45.2116 6.63443C45.4356 6.81043 45.4596 7.09843 45.4596 7.25843C45.4596 7.41843 45.4356 7.70643 45.2116 7.88243C45.0116 8.04243 44.6996 8.05843 44.5156 8.05843H43.9156V6.45843ZM47.4509 8.13843C47.4509 9.23443 47.8589 9.91443 48.2749 10.3224C48.6349 10.6744 49.2749 11.0984 50.3309 11.0984C51.3869 11.0984 52.0269 10.6744 52.3869 10.3224C52.8029 9.91443 53.2109 9.23443 53.2109 8.13843C53.2109 7.04243 52.8029 6.36243 52.3869 5.95443C52.0269 5.60243 51.3869 5.17843 50.3309 5.17843C49.2749 5.17843 48.6349 5.60243 48.2749 5.95443C47.8589 6.36243 47.4509 7.04243 47.4509 8.13843ZM49.0989 8.11443C49.0989 7.55443 49.1949 7.17043 49.3629 6.90643C49.4749 6.73843 49.7629 6.38643 50.3309 6.38643C50.8989 6.38643 51.1869 6.73843 51.2989 6.90643C51.4669 7.17043 51.5629 7.55443 51.5629 8.11443C51.5629 8.68243 51.4669 9.06643 51.2989 9.33043C51.1869 9.49843 50.8989 9.85043 50.3309 9.85043C49.7629 9.85043 49.4749 9.49843 49.3629 9.33043C49.1949 9.06643 49.0989 8.68243 49.0989 8.11443ZM55.1331 5.33843L53.5331 9.73843V10.9384H59.0691V9.73843L57.4691 5.33843H55.1331ZM56.2131 6.49043H56.3891L57.4611 9.73843H55.1411L56.2131 6.49043ZM61.0844 5.33843L59.2284 10.9384H60.9084L61.2684 9.71443H63.2684L63.6284 10.9384H65.3084L63.4524 5.33843H61.0844ZM62.1804 6.45843H62.3564L62.9324 8.54643H61.6044L62.1804 6.45843ZM65.4866 5.33843L66.9346 7.97043L65.4706 10.9384H67.2146L68.2146 8.57043H68.8466V10.9384H70.3986V8.57043H71.0306L72.0306 10.9384H73.7746L72.3106 7.97043L73.7586 5.33843H72.0546L71.0306 7.49843H70.3986V5.33843H68.8466V7.49843H68.2146L67.1906 5.33843H65.4866Z" fill="white"/>
</svg>
