<svg width="60" height="15" viewBox="0 0 60 15" fill="none" xmlns="http://www.w3.org/2000/svg">
<rect y="0.938431" width="60" height="14" fill="white"/>
<path d="M19.056 10.9384H16.624V5.60243H19C19.4587 5.60243 19.8213 5.72776 20.088 5.97843C20.36 6.2291 20.496 6.5571 20.496 6.96243C20.496 7.28243 20.4053 7.55443 20.224 7.77843C20.0427 7.9971 19.8213 8.1331 19.56 8.18643C19.8427 8.2291 20.0853 8.37843 20.288 8.63443C20.496 8.89043 20.6 9.17843 20.6 9.49843C20.6 9.93043 20.4613 10.2798 20.184 10.5464C19.912 10.8078 19.536 10.9384 19.056 10.9384ZM18.888 7.91443C19.1813 7.91443 19.408 7.83443 19.568 7.67443C19.728 7.51443 19.808 7.3091 19.808 7.05843C19.808 6.80776 19.7253 6.60243 19.56 6.44243C19.4 6.2771 19.176 6.19443 18.888 6.19443H17.288V7.91443H18.888ZM18.92 10.3464C19.2293 10.3464 19.472 10.2638 19.648 10.0984C19.824 9.9331 19.912 9.7091 19.912 9.42643C19.912 9.1651 19.824 8.94643 19.648 8.77043C19.4773 8.59443 19.2347 8.50643 18.92 8.50643H17.288V10.3464H18.92ZM24.2938 10.9384H23.6938V7.07443H24.2938V8.68243H26.3098V7.07443H26.9098V10.9384H26.3098V9.21043H24.2938V10.9384ZM31.1238 10.9384H30.5238V10.4984C30.1985 10.8558 29.7718 11.0344 29.2438 11.0344C28.8865 11.0344 28.5718 10.9198 28.2998 10.6904C28.0278 10.4611 27.8918 10.1491 27.8918 9.75443C27.8918 9.3491 28.0251 9.0371 28.2918 8.81843C28.5638 8.59443 28.8811 8.48243 29.2438 8.48243C29.7931 8.48243 30.2198 8.65843 30.5238 9.01043V8.31443C30.5238 8.05843 30.4331 7.85843 30.2518 7.71443C30.0705 7.57043 29.8358 7.49843 29.5478 7.49843C29.0945 7.49843 28.6998 7.6771 28.3638 8.03443L28.0838 7.61843C28.4945 7.19176 29.0091 6.97843 29.6278 6.97843C30.0705 6.97843 30.4305 7.0851 30.7078 7.29843C30.9851 7.51176 31.1238 7.83976 31.1238 8.28243V10.9384ZM29.4598 10.6024C29.9398 10.6024 30.2945 10.4424 30.5238 10.1224V9.39443C30.2945 9.07443 29.9398 8.91443 29.4598 8.91443C29.1825 8.91443 28.9531 8.99443 28.7718 9.15443C28.5958 9.3091 28.5078 9.51176 28.5078 9.76243C28.5078 10.0078 28.5958 10.2104 28.7718 10.3704C28.9531 10.5251 29.1825 10.6024 29.4598 10.6024ZM31.8706 11.0344V10.5384C32.0519 10.5384 32.2012 10.4184 32.3186 10.1784C32.4359 9.93843 32.5319 9.53843 32.6066 8.97843L32.8546 7.07443H35.5426V10.9384H34.9426V7.60243H33.3826L33.2066 9.05043C33.1212 9.75976 32.9719 10.2691 32.7586 10.5784C32.5452 10.8824 32.2492 11.0344 31.8706 11.0344ZM37.3166 10.9384H36.7406V7.07443H37.3406V10.0264L39.3646 7.07443H39.9566V10.9384H39.3566V7.93043L37.3166 10.9384ZM41.0747 7.07443H41.6747V8.16243C41.6747 8.5091 41.7547 8.7491 41.9147 8.88243C42.0747 9.01576 42.3227 9.08243 42.6587 9.08243C43.0747 9.08243 43.416 9.0131 43.6827 8.87443V7.07443H44.2827V10.9384H43.6827V9.36243C43.3414 9.5331 42.9494 9.61843 42.5067 9.61843C42.0054 9.61843 41.64 9.5171 41.4107 9.31443C41.1867 9.11176 41.0747 8.7891 41.0747 8.34643V7.07443ZM46.0588 10.9384H45.4828V7.07443H46.0828V10.0264L48.1068 7.07443H48.6988V10.9384H48.0988V7.93043L46.0588 10.9384ZM50.4729 10.9384H49.8969V7.07443H50.4969V10.0264L52.5209 7.07443H53.1129V10.9384H52.5129V7.93043L50.4729 10.9384Z" fill="#4F493F"/>
<path fill-rule="evenodd" clip-rule="evenodd" d="M8.64016 9.29827L12.125 5.81343L12.6553 6.34376L8.64016 10.3589L6.5 8.21876L7.03033 7.68843L8.64016 9.29827Z" fill="#4F493F"/>
</svg>
