<svg width="67" height="15" viewBox="0 0 67 15" fill="none" xmlns="http://www.w3.org/2000/svg">
<rect y="0.938431" width="67" height="14" fill="#087A28"/>
<path d="M17.48 5.33843V10.9384H19.064V8.64243H21.016V10.9384H22.6V5.33843H21.016V7.38643H19.064V5.33843H17.48ZM23.3181 8.13843C23.3181 9.23443 23.7261 9.91443 24.1421 10.3224C24.5021 10.6744 25.1421 11.0984 26.1981 11.0984C27.2541 11.0984 27.8941 10.6744 28.2541 10.3224C28.6701 9.91443 29.0781 9.23443 29.0781 8.13843C29.0781 7.04243 28.6701 6.36243 28.2541 5.95443C27.8941 5.60243 27.2541 5.17843 26.1981 5.17843C25.1421 5.17843 24.5021 5.60243 24.1421 5.95443C23.7261 6.36243 23.3181 7.04243 23.3181 8.13843ZM24.9661 8.11443C24.9661 7.55443 25.0621 7.17043 25.2301 6.90643C25.3421 6.73843 25.6301 6.38643 26.1981 6.38643C26.7661 6.38643 27.0541 6.73843 27.1661 6.90643C27.3341 7.17043 27.4301 7.55443 27.4301 8.11443C27.4301 8.68243 27.3341 9.06643 27.1661 9.33043C27.0541 9.49843 26.7661 9.85043 26.1981 9.85043C25.6301 9.85043 25.3421 9.49843 25.2301 9.33043C25.0621 9.06643 24.9661 8.68243 24.9661 8.11443ZM29.8003 5.33843V10.9384H32.1603C32.8643 10.9384 33.4963 10.9384 33.9843 10.6504C34.2723 10.4824 34.6803 10.1064 34.6803 9.37043C34.6803 8.45043 34.0083 8.12243 33.6883 8.01843C34.2483 7.83443 34.6003 7.35443 34.5843 6.74643C34.5683 6.16243 34.2643 5.81043 33.9363 5.61843C33.4643 5.33843 32.8563 5.33843 32.1603 5.33843H29.8003ZM31.3843 8.58643H32.1603C32.3523 8.58643 32.6243 8.57043 32.8243 8.69043C33.0403 8.81843 33.0803 9.03443 33.0803 9.19443C33.0803 9.36243 33.0403 9.57843 32.8243 9.71443C32.6243 9.83443 32.3523 9.81843 32.1603 9.81843H31.3843V8.58643ZM31.3843 6.41843H32.1603C32.3603 6.41843 32.6163 6.39443 32.8003 6.52243C32.9843 6.65043 33.0083 6.84243 33.0083 6.97043C33.0083 7.09043 32.9843 7.29843 32.8003 7.42643C32.6483 7.53043 32.4163 7.53843 32.1603 7.53843H31.3843V6.41843ZM35.4019 5.33843V10.9384H36.9859V9.33843L38.9379 8.14643V10.9384H40.5219V5.33843H38.9379V6.77843L36.9859 7.97043V5.33843H35.4019ZM41.48 5.33843V10.9384H43.064V8.64243H45.016V10.9384H46.6V5.33843H45.016V7.38643H43.064V5.33843H41.48ZM47.5581 5.33843V10.9384H49.1421V8.58643H49.8701L51.0141 10.9384H52.8381L51.1581 7.97043L52.8221 5.33843H51.1021L49.8701 7.43443H49.1421V5.33843H47.5581ZM54.8579 5.33843L53.0019 10.9384H54.6819L55.0419 9.71443H57.0419L57.4019 10.9384H59.0819L57.2259 5.33843H54.8579ZM55.9539 6.45843H56.1299L56.7059 8.54643H55.3779L55.9539 6.45843Z" fill="white"/>
<path fill-rule="evenodd" clip-rule="evenodd" d="M8.04167 7.27176V8.2926L6.875 9.1676V10.7718L8.04167 10.7718C8.04167 11.0939 8.30283 11.3551 8.625 11.3551H9.20833V11.6468H9.79167V11.3551H10.375C10.6972 11.3551 10.9583 11.0939 10.9583 10.7718L12.125 10.7718V9.1676L10.9583 8.29259V7.27176C10.9583 6.35124 10.4002 5.23009 9.5 5.23009C8.59979 5.23009 8.04167 6.35124 8.04167 7.27176ZM9.79167 10.7718H10.375V7.85509V7.27176C10.375 6.63221 9.9674 5.81343 9.5 5.81343C9.0326 5.81343 8.625 6.63221 8.625 7.27176V7.85509V10.7718H9.20833V9.02176H9.79167V10.7718ZM7.45833 9.45926L8.04167 9.02176V10.1884H7.45833V9.45926ZM10.9583 10.1884V9.02176L11.5417 9.45926V10.1884H10.9583ZM9.5 8.14676C9.17783 8.14676 8.91667 7.88559 8.91667 7.56343C8.91667 7.24126 9.17783 6.98009 9.5 6.98009C9.82217 6.98009 10.0833 7.24126 10.0833 7.56343C10.0833 7.88559 9.82217 8.14676 9.5 8.14676Z" fill="white"/>
</svg>
